<svg width="24" height="24" viewBox="0 0 24 24" fill="none" xmlns="http://www.w3.org/2000/svg">
<path d="M3 1.5C2.17157 1.5 1.5 2.17157 1.5 3V21C1.5 21.8284 2.17157 22.5 3 22.5H21C21.8284 22.5 22.5 21.8284 22.5 21V3C22.5 2.17157 21.8284 1.5 21 1.5H14.25C13.4216 1.5 12.75 2.17157 12.75 3V9.75H15.75C16.0533 9.75 16.3268 9.93273 16.4429 10.213C16.559 10.4932 16.4948 10.8158 16.2803 11.0303L12.5303 14.7803C12.2374 15.0732 11.7626 15.0732 11.4697 14.7803L7.71967 11.0303C7.50517 10.8158 7.441 10.4932 7.55709 10.213C7.67318 9.93273 7.94665 9.75 8.25 9.75H11.25V3C11.25 1.34315 12.5931 0 14.25 0H21C22.6569 0 24 1.34315 24 3V21C24 22.6569 22.6569 24 21 24H3C1.34315 24 0 22.6569 0 21V3C0 1.34315 1.34315 0 3 0H6.75C7.16421 0 7.5 0.335786 7.5 0.75C7.5 1.16421 7.16421 1.5 6.75 1.5H3Z" fill="black"/>
</svg>
