<svg width="67" height="67" viewBox="0 0 67 67" fill="none" xmlns="http://www.w3.org/2000/svg">
<path d="M5.33905 49.7265H47.7375C47.7375 41.9797 41.7703 30.15 41.7703 30.15C41.875 29.6265 41.2469 28.8937 40.6187 28.8937L27.3234 22.7172C27.0094 22.2984 25.9625 22.4031 25.7531 22.7172L12.4578 28.8937C11.8297 28.8937 11.2015 29.6265 11.3062 30.15C11.3062 30.15 5.33905 42.0844 5.33905 49.7265Z" fill="#7D593E"/>
<path d="M29.6266 60.3C29.6266 60.3 36.7453 61.5563 38.4203 60.3C40.7234 58.5203 37.0594 50.25 34.7563 48.4703C34.7563 48.4703 29.9406 48.0516 28.3703 49.5172C28.475 49.4125 30.8828 56.2172 29.6266 60.3ZM16.4359 60.8234C16.4359 60.8234 22.0891 60.5094 23.1359 59.1484C24.6016 57.3688 20.5188 51.7156 18.425 50.7734C18.425 50.7734 14.6563 51.4016 13.7141 52.7625C13.7141 52.7625 16.6453 57.4734 16.4359 60.8234Z" fill="#64892F"/>
<path d="M61.0328 21.0422C61.0328 21.0422 52.1344 12.1437 50.3547 19.2625C50.25 19.1578 57.9969 28.2656 61.0328 21.0422Z" fill="#4B662B"/>
<path d="M41.2469 9.00312C47.4235 2.30312 72.025 8.89844 62.9172 19.3672C62.9172 19.3672 58.9391 17.2734 51.5063 17.3781C57.3688 22.6125 61.0328 20.9375 61.0328 20.9375C61.0328 24.2875 59.4625 27.0094 53.286 27.0094C45.6438 27.0094 53.9141 47.7375 47.1094 47.7375C43.1313 47.7375 42.2938 31.3016 41.9797 30.3594C40.4094 25.125 37.1641 13.5047 41.2469 9.00312ZM3.24533 46.4812C1.98908 48.1562 1.8844 52.3437 2.30315 53.2859C2.7219 54.1234 3.35002 52.1344 4.18752 50.25C5.65315 47.0047 8.47971 46.3766 6.49065 45.1203C5.65315 44.4922 3.87346 45.6437 3.24533 46.4812Z" fill="#83BF4F"/>
<path d="M26.5906 30.2547L36.4312 34.3375L38.3156 44.9109H14.7609L16.6453 34.3375L26.5906 30.2547ZM12.4578 28.8937C16.2266 25.125 20.6234 22.8219 25.7531 22.7172V29.1031L16.1219 32.7672L12.4578 28.8937ZM27.3234 28.9984V22.6125C32.4531 22.7172 36.85 25.0203 40.6187 28.789L36.9547 32.6625L27.3234 28.9984ZM11.3062 30.15L15.3891 34.3375L13.2953 44.9109H4.39687C5.44375 39.1531 7.95624 34.0234 11.3062 30.15ZM37.6875 34.3375L41.7703 30.15C43.4453 32.0344 44.9109 35.2797 47.1094 36.0125C49.6219 36.85 48.1562 45.0156 39.7812 45.0156L37.6875 34.3375Z" fill="#C1875D"/>
<path d="M48.6797 47.2141H4.39688C4.39688 53.0766 9.42188 55.3797 26.5906 55.3797C43.7594 55.3797 48.6797 53.0766 48.6797 47.2141Z" fill="#FFD93B"/>
<path d="M35.489 47.2141C35.3843 48.0516 35.175 48.7844 34.9656 49.5172C34.7562 50.25 34.4422 50.9828 34.0234 51.6109C33.6047 52.2391 33.1859 52.8672 32.6625 53.4953C32.139 54.1234 31.5109 54.6469 30.9875 55.275C31.825 55.0656 32.5578 54.5422 33.2906 54.0187C33.9187 53.4953 34.5468 52.7625 34.9656 52.0297C35.3843 51.2969 35.6984 50.4594 35.8031 49.6219C35.8031 48.8891 35.8031 48.0516 35.489 47.2141ZM17.5875 47.2141C17.2734 47.9469 17.2734 48.8891 17.3781 49.7266C17.4828 50.5641 17.7969 51.4016 18.2156 52.1344C18.6344 52.8672 19.2625 53.6 19.8906 54.1234C20.5187 54.6469 21.3562 55.0656 22.1937 55.3797C21.5656 54.7516 21.0422 54.2281 20.5187 53.6C19.9953 52.9719 19.5765 52.3437 19.1578 51.7156C18.739 51.0875 18.425 50.3547 18.2156 49.6219C17.9015 48.7844 17.6922 48.0516 17.5875 47.2141Z" fill="#AF921B"/>
<path d="M51.611 14.6562C50.1077 14.6562 48.8891 13.4376 48.8891 11.9344C48.8891 10.4311 50.1077 9.21249 51.611 9.21249C53.1142 9.21249 54.3328 10.4311 54.3328 11.9344C54.3328 13.4376 53.1142 14.6562 51.611 14.6562Z" fill="#3E4347"/>
<path d="M62.1844 12.5625L62.9172 12.8766L62.6031 12.039L61.8703 11.6203L62.1844 12.5625Z" fill="#4B662B"/>
<path d="M35.8031 63.7547C35.8031 63.7547 45.1203 65.7438 47.4234 63.7547C50.4594 61.0328 45.6437 48.3656 42.6078 45.6438C42.6078 45.6438 36.2219 45.0156 34.1281 47.2141C34.2328 47.2141 37.3734 57.5781 35.8031 63.7547Z" fill="#83BF4F"/>
<path d="M44.4922 63.7547C45.6437 60.8234 47.5281 58.8344 48.0515 58.8344C48.6797 58.8344 49.9359 60.6141 49.9359 64.0688C49.8312 65.2203 43.864 65.2203 44.4922 63.7547Z" fill="#6EA03F"/>
<path d="M2.61717 54.4375C2.61717 54.4375 7.4328 62.7078 9.84061 62.6031C13.0859 62.3937 20.1 54.7516 17.3781 46.0625C17.3781 46.0625 11.5156 45.225 9.1078 45.6437C9.1078 45.5391 10.7828 52.9719 2.61717 54.4375Z" fill="#83BF4F"/>
<path d="M7.74686 60.9281C9.84061 59.5672 12.039 59.1484 12.3531 59.4625C12.7719 59.7766 12.8765 61.6609 11.3062 64.0688C10.7828 64.8016 6.69998 61.6609 7.74686 60.9281Z" fill="#6EA03F"/>
</svg>
